<svg width="19" height="16" viewBox="0 0 19 16" fill="none" xmlns="http://www.w3.org/2000/svg">
<path d="M5.07638 15.9969C6.55507 16.0463 8.02868 15.7989 9.41012 15.2692C10.7916 14.7394 12.0528 13.9382 13.1193 12.9127C14.1858 11.8872 15.0359 10.6584 15.6193 9.29875C16.2028 7.93915 16.5079 6.47637 16.5164 4.99687C17.194 4.15828 17.6972 3.1927 17.9964 2.15687C18.0187 2.07503 18.0169 1.98848 17.9912 1.90764C17.9655 1.82681 17.9169 1.75513 17.8514 1.70124C17.7859 1.64735 17.7062 1.61354 17.6219 1.6039C17.5376 1.59425 17.4524 1.60917 17.3764 1.64687C17.0219 1.81752 16.6227 1.87265 16.2352 1.80448C15.8477 1.7363 15.4914 1.54827 15.2164 1.26687C14.8653 0.882449 14.4407 0.572401 13.9676 0.355098C13.4946 0.137794 12.9827 0.0176571 12.4623 0.00180415C11.942 -0.0140488 11.4237 0.0747053 10.9383 0.262807C10.4529 0.450909 10.0102 0.734532 9.63638 1.09687C9.12457 1.59253 8.7497 2.21216 8.54819 2.89555C8.34668 3.57893 8.32538 4.30282 8.48638 4.99687C5.13638 5.19687 2.83638 3.60687 0.996379 1.42687C0.941102 1.36427 0.868793 1.31912 0.788282 1.29694C0.707771 1.27476 0.622543 1.2765 0.543004 1.30195C0.463466 1.3274 0.39306 1.37546 0.340385 1.44027C0.28771 1.50507 0.255045 1.58381 0.246379 1.66687C-0.104151 3.61129 0.148709 5.61642 0.970997 7.41294C1.79329 9.20946 3.14562 10.7113 4.84638 11.7169C3.70602 13.0247 2.10459 13.8415 0.376379 13.9969C0.283791 14.0122 0.198321 14.0561 0.131931 14.1225C0.0655402 14.1888 0.0215524 14.2743 0.00612315 14.3668C-0.00930608 14.4594 0.00459568 14.5545 0.0458828 14.6388C0.0871699 14.7231 0.153776 14.7923 0.236379 14.8369C1.7399 15.5882 3.39561 15.9851 5.07638 15.9969Z" fill="white"/>
</svg>
