<svg width="69" height="56" viewBox="0 0 69 56" fill="none" xmlns="http://www.w3.org/2000/svg">
<path d="M56.143 3.35025C54.1962 1.39114 51.605 0.215795 48.8572 0.0454292C46.1095 -0.124937 43.3946 0.721417 41.2236 2.42521C39.2412 0.874883 36.8021 0.0330728 34.2916 0.0325831C31.781 0.0320935 29.3419 0.872954 27.3587 2.42251C25.097 0.636192 22.2433 -0.213867 19.38 0.0458754C16.5168 0.305617 13.86 1.65557 11.952 3.82014C10.0441 5.98472 9.02889 8.80065 9.11368 11.6931C9.19847 14.5855 10.3769 17.3364 12.4083 19.3839L19.3458 26.3679C19.3512 26.3731 19.3566 26.3782 19.3626 26.3836C19.3687 26.389 19.3704 26.3916 19.3742 26.3955C19.3814 26.4027 19.3892 26.4093 19.3964 26.4166C19.5067 26.5264 19.6186 26.6334 19.7322 26.7377C19.7907 26.7916 19.8498 26.8439 19.9092 26.8964C19.9574 26.9387 20.0059 26.9806 20.0546 27.022C22.0322 28.7086 24.5263 29.659 27.1178 29.7131C29.7094 29.7674 32.2405 28.9223 34.2861 27.3197C36.4571 29.0234 39.172 29.8698 41.9196 29.6994C44.6675 29.5291 47.2586 28.3537 49.2055 26.3946L56.1432 19.4116C58.2561 17.2801 59.4426 14.3919 59.4426 11.3809C59.4426 8.36984 58.2559 5.48177 56.143 3.35025ZM34.2894 2.99058C35.9389 2.98952 37.5516 3.48104 38.9233 4.40292C40.2952 5.3248 41.3643 6.63559 41.9957 8.1694C42.6271 9.70321 42.7921 11.3911 42.4701 13.0194C42.148 14.6477 41.3532 16.1432 40.1864 17.3166L34.2894 23.252L28.3923 17.3166C27.2254 16.1432 26.4307 14.6476 26.1086 13.0193C25.7865 11.391 25.9516 9.70315 26.583 8.16933C27.2143 6.63551 28.2836 5.32471 29.6554 4.40285C31.0273 3.48099 32.64 2.98948 34.2894 2.99058ZM19.0118 18.3642C19.0088 17.2613 19.2232 16.1689 19.6425 15.1501C20.0618 14.1313 20.6777 13.2062 21.4546 12.4286L23.0241 10.8488C22.9481 12.4279 23.2013 14.0055 23.7674 15.4803C24.3334 16.9549 25.1999 18.294 26.3109 19.4116L32.0873 25.2258C30.8414 26.1042 29.3798 26.6216 27.8618 26.7213C26.344 26.821 24.8279 26.4996 23.4791 25.7917C22.1302 25.0837 21.0003 24.0169 20.2126 22.707C19.4248 21.3972 19.0093 19.8948 19.0115 18.3637L19.0118 18.3642ZM14.4893 17.2887C13.0132 15.8033 12.1442 13.8147 12.0541 11.7158C11.9639 9.61679 12.659 7.56009 14.0021 5.95196C15.3453 4.34381 17.2388 3.30117 19.3086 3.02998C21.3784 2.75879 23.4739 3.27879 25.1813 4.48724L19.3732 10.3334C18.3222 11.3856 17.4889 12.6371 16.9217 14.0156C16.3545 15.3941 16.0645 16.8721 16.0686 18.3642C16.0686 18.5403 16.0727 18.7157 16.0808 18.8907L14.4893 17.2887ZM41.2275 26.7582C39.5236 26.7622 37.86 26.2369 36.4638 25.2539L42.2686 19.4116C43.3797 18.294 44.246 16.9549 44.812 15.4802C45.3781 14.0055 45.6313 12.4279 45.5554 10.8488L47.1249 12.4286C48.2913 13.6026 49.0854 15.0983 49.4071 16.7266C49.729 18.3549 49.5638 20.0427 48.9324 21.5766C48.3012 23.1104 47.2322 24.4213 45.8609 25.3437C44.4893 26.266 42.8769 26.7582 41.2275 26.7582ZM54.062 17.3166L52.4982 18.8907C52.5061 18.7159 52.5101 18.5405 52.5104 18.3642C52.5145 16.8721 52.2245 15.3941 51.6572 14.0156C51.09 12.6371 50.2566 11.3856 49.2056 10.3334L43.4015 4.49113C45.1119 3.29309 47.206 2.78303 49.2714 3.06135C51.3368 3.33966 53.2239 4.3862 54.561 5.99491C55.8982 7.60361 56.5885 9.6579 56.4961 11.7533C56.4038 13.8487 55.5355 15.8334 54.062 17.3166Z" fill="#025595"/>
<path d="M7.99589 37.4481C6.02089 37.4481 4.54443 37.8988 3.56651 38.8C2.60777 39.682 2.1284 40.9667 2.1284 42.6541V45.4728H11.735V47.3136H2.1284V55.856H0V42.6253C0 40.4202 0.690293 38.6945 2.07088 37.4481C3.45146 36.1826 5.39771 35.5498 7.90961 35.5498C10.3448 35.5498 12.3006 36.0772 13.7771 37.1318L13.0005 38.8863C11.6966 37.9275 10.0284 37.4481 7.99589 37.4481Z" fill="#222222"/>
<path d="M21.3002 55.9998C19.9388 55.9998 18.8842 55.6163 18.1364 54.8493C17.4077 54.0823 17.0434 53.0181 17.0434 51.6567V34.5144H19.0855V51.4841C19.0855 52.3853 19.2964 53.0756 19.7183 53.555C20.1401 54.0152 20.7729 54.2453 21.6166 54.2453C22.1535 54.2453 22.6137 54.159 22.9972 53.9864L23.141 55.6834C22.5466 55.8943 21.933 55.9998 21.3002 55.9998Z" fill="#222222"/>
<path d="M31.8222 55.9998C30.3649 55.9998 29.0515 55.6738 27.8818 55.0219C26.7121 54.3507 25.7918 53.4303 25.1206 52.2607C24.4495 51.091 24.114 49.768 24.114 48.2915C24.114 46.815 24.4495 45.492 25.1206 44.3223C25.7918 43.1527 26.7121 42.2418 27.8818 41.5899C29.0515 40.938 30.3649 40.612 31.8222 40.612C33.2795 40.612 34.593 40.938 35.7626 41.5899C36.9323 42.2418 37.8431 43.1527 38.4951 44.3223C39.1662 45.492 39.5017 46.815 39.5017 48.2915C39.5017 49.768 39.1662 51.091 38.4951 52.2607C37.8431 53.4303 36.9323 54.3507 35.7626 55.0219C34.593 55.6738 33.2795 55.9998 31.8222 55.9998ZM31.8222 54.1877C32.896 54.1877 33.8548 53.9481 34.6984 53.4687C35.5613 52.9701 36.2324 52.2703 36.7118 51.3691C37.1912 50.4678 37.4309 49.442 37.4309 48.2915C37.4309 47.141 37.1912 46.1152 36.7118 45.2139C36.2324 44.3127 35.5613 43.6224 34.6984 43.1431C33.8548 42.6445 32.896 42.3952 31.8222 42.3952C30.7484 42.3952 29.7801 42.6445 28.9172 43.1431C28.0736 43.6224 27.4024 44.3127 26.9039 45.2139C26.4245 46.1152 26.1848 47.141 26.1848 48.2915C26.1848 49.442 26.4245 50.4678 26.9039 51.3691C27.4024 52.2703 28.0736 52.9701 28.9172 53.4687C29.7801 53.9481 30.7484 54.1877 31.8222 54.1877Z" fill="#222222"/>
<path d="M45.6267 43.6895C46.1061 42.6733 46.8156 41.9063 47.7551 41.3886C48.7139 40.8709 49.8931 40.612 51.2929 40.612V42.5966L50.8039 42.5678C49.2124 42.5678 47.9661 43.0568 47.0648 44.0347C46.1636 45.0126 45.713 46.3836 45.713 48.1477V55.856H43.6709V40.727H45.6267V43.6895Z" fill="#222222"/>
<path d="M68.6558 40.727V55.856H66.7V52.8647C66.0864 53.881 65.2715 54.6575 64.2552 55.1944C63.2581 55.7313 62.1268 55.9998 60.8613 55.9998C59.4423 55.9998 58.1576 55.6738 57.0071 55.0219C55.8566 54.3699 54.9554 53.4591 54.3035 52.2894C53.6515 51.1198 53.3256 49.7871 53.3256 48.2915C53.3256 46.7959 53.6515 45.4632 54.3035 44.2936C54.9554 43.1239 55.8566 42.2227 57.0071 41.5899C58.1576 40.938 59.4423 40.612 60.8613 40.612C62.0884 40.612 63.191 40.8709 64.1689 41.3886C65.166 41.8871 65.9809 42.6253 66.6137 43.6033V40.727H68.6558ZM61.0338 54.1877C62.0884 54.1877 63.0376 53.9481 63.8813 53.4687C64.7442 52.9701 65.4153 52.2703 65.8946 51.3691C66.3932 50.4678 66.6425 49.442 66.6425 48.2915C66.6425 47.141 66.3932 46.1152 65.8946 45.2139C65.4153 44.3127 64.7442 43.6224 63.8813 43.1431C63.0376 42.6445 62.0884 42.3952 61.0338 42.3952C59.96 42.3952 58.9917 42.6445 58.1288 43.1431C57.2852 43.6224 56.614 44.3127 56.1155 45.2139C55.6361 46.1152 55.3964 47.141 55.3964 48.2915C55.3964 49.442 55.6361 50.4678 56.1155 51.3691C56.614 52.2703 57.2852 52.9701 58.1288 53.4687C58.9917 53.9481 59.96 54.1877 61.0338 54.1877Z" fill="#222222"/>
</svg>
