<svg width="18" height="18" viewBox="0 0 18 18" fill="none" xmlns="http://www.w3.org/2000/svg">
<path d="M12.15 5.4C11.3836 5.39737 10.6241 5.54589 9.91513 5.83707C9.20614 6.12826 8.56153 6.55638 8.01817 7.09695C7.47482 7.63752 7.04339 8.27992 6.74856 8.9874C6.45374 9.69488 6.30131 10.4535 6.3 11.22V17.1C6.3 17.3387 6.39482 17.5676 6.56361 17.7364C6.73239 17.9052 6.96131 18 7.2 18H9.3C9.5387 18 9.76762 17.9052 9.9364 17.7364C10.1052 17.5676 10.2 17.3387 10.2 17.1V11.22C10.1998 10.9474 10.2571 10.6778 10.368 10.4288C10.479 10.1798 10.6412 9.95704 10.8441 9.77494C11.0469 9.59284 11.2859 9.45554 11.5454 9.37198C11.8048 9.28842 12.079 9.26049 12.35 9.29C12.836 9.35121 13.2827 9.58866 13.6052 9.95731C13.9278 10.326 14.1038 10.8002 14.1 11.29V17.1C14.1 17.3387 14.1948 17.5676 14.3636 17.7364C14.5324 17.9052 14.7613 18 15 18H17.1C17.3387 18 17.5676 17.9052 17.7364 17.7364C17.9052 17.5676 18 17.3387 18 17.1V11.22C17.9987 10.4535 17.8463 9.69488 17.5514 8.9874C17.2566 8.27992 16.8252 7.63752 16.2818 7.09695C15.7385 6.55638 15.0939 6.12826 14.3849 5.83707C13.6759 5.54589 12.9164 5.39737 12.15 5.4Z" fill="white"/>
<path d="M3.6 6.3H0.9C0.402944 6.3 0 6.70295 0 7.2V17.1C0 17.5971 0.402944 18 0.9 18H3.6C4.09706 18 4.5 17.5971 4.5 17.1V7.2C4.5 6.70295 4.09706 6.3 3.6 6.3Z" fill="white"/>
<path d="M2.25 4.5C3.49264 4.5 4.5 3.49264 4.5 2.25C4.5 1.00736 3.49264 0 2.25 0C1.00736 0 0 1.00736 0 2.25C0 3.49264 1.00736 4.5 2.25 4.5Z" fill="white"/>
</svg>
